# xmcd
#
# Track frame offsets: 
#        150
#        16803
#        36628
#        50509
#        62479
#        76543
#        92818
#        112522
#        125012
#        137379
#        148283
#        161255
#        181280
#        194747
#
# Disc length: 2750 seconds
#
# Revision: 0
# Processed by: cddbd v1.5.2PL0 Copyright (c) Steve Scherf et al.
# Submitted via: ExactAudioCopy v0.99pb5
#
DISCID=b60abc0e
DTITLE=Egidio Juke Ingala and The Jacknives - Switcharoo
DYEAR=2017
DGENRE=Blues
TTITLE0=Can't Get You Off My Mind
TTITLE1=She Got Me
TTITLE2=Money Takin' Mama
TTITLE3=I Don't Know, Baby
TTITLE4=Hold Out Mama
TTITLE5=Seasick And Waterbound
TTITLE6=Treat Me So Bad
TTITLE7=I Was Your Fool
TTITLE8=Cornbread And Caviar
TTITLE9=Crying And Pleading
TTITLE10=Little Ann
TTITLE11=Miss Daisy
TTITLE12=Feel So Bad
TTITLE13=Sleeping Beauty
EXTD=
EXTT0=
EXTT1=
EXTT2=
EXTT3=
EXTT4=
EXTT5=
EXTT6=
EXTT7=
EXTT8=
EXTT9=
EXTT10=
EXTT11=
EXTT12=
EXTT13=
PLAYORDER=
